<svg id="brand_logo" xmlns="http://www.w3.org/2000/svg" width="136.989" height="111.417" viewBox="0 0 136.989 111.417">
  <defs>
    <style>
      .cls-1 {
        fill: #fff;
      }
    </style>
  </defs>
  <g id="세로형" transform="translate(-367.094 -650.643)">
    <path id="패스_166" data-name="패스 166" class="cls-1" d="M382.2,711.6a4.919,4.919,0,0,0-1.756-3.983l-.185-.142h2.88v-2.327H377v-2.5h-3.775v2.5h-6.134v2.327h2.862l-.166.142a4.9,4.9,0,0,0-1.763,3.983c0,3.687,2.84,6.153,7.073,6.153,4.25,0,7.1-2.467,7.1-6.153m-10.541,0c0-2.277,1.386-3.824,3.438-3.824,2.079,0,3.457,1.547,3.457,3.824,0,2.3-1.378,3.824-3.457,3.824-2.052,0-3.438-1.525-3.438-3.824" transform="translate(0 30.28)"/>
    <path id="패스_167" data-name="패스 167" class="cls-1" d="M373.546,720.362H388.43V713.48H369.749v2.335H384.8v2.28H369.909v7.38h18.84v-2.34h-15.2Z" transform="translate(1.546 36.586)"/>
    <path id="패스_168" data-name="패스 168" class="cls-1" d="M396.666,712.815l.06.135c2.215,3.921,7.658,6.111,11.707,6.793v-2.457c-4.807-1.125-9.884-5.073-9.884-10.22v-3.036h-3.755v3.036c0,5.147-5.093,9.095-9.878,10.22v2.457c4.13-.706,9.622-2.892,11.682-6.793Z" transform="translate(10.377 31.083)"/>
    <rect id="사각형_112" data-name="사각형 112" class="cls-1" width="25.385" height="2.481" transform="translate(394.356 756.454)"/>
    <rect id="사각형_113" data-name="사각형 113" class="cls-1" width="3.426" height="28.501" transform="translate(443.819 733.559)"/>
    <path id="패스_169" data-name="패스 169" class="cls-1" d="M413.2,731.548h3.421v-28.5H413.2v8.938h-3.427v2.323H413.2Z" transform="translate(24.849 30.511)"/>
    <path id="패스_170" data-name="패스 170" class="cls-1" d="M406.272,713.736h5.865v-2.261h-5.865v-5.108h6.848v-2.338H402.689v18.338h11.667v-2.349h-8.084Z" transform="translate(20.724 31.083)"/>
    <rect id="사각형_114" data-name="사각형 114" class="cls-1" width="3.581" height="28.501" transform="translate(471.354 733.559)"/>
    <path id="패스_171" data-name="패스 171" class="cls-1" d="M428.813,704.028c-4.916,0-8.342,3.812-8.342,8.9s3.426,8.9,8.342,8.9c4.9,0,8.323-3.807,8.323-8.9s-3.427-8.9-8.323-8.9m0,15.351c-2.81,0-4.6-2.691-4.6-6.449s1.788-6.446,4.6-6.446c2.791,0,4.6,2.688,4.6,6.446s-1.805,6.449-4.6,6.449" transform="translate(31.078 31.082)"/>
    <rect id="사각형_115" data-name="사각형 115" class="cls-1" width="25.385" height="2.481" transform="translate(478.698 756.454)"/>
    <path id="패스_172" data-name="패스 172" class="cls-1" d="M443.38,713.074h14.949v-2.267H443.38v-4.454h15.262v-2.324H439.794v16.387h19.156v-2.332H443.38Z" transform="translate(42.328 31.083)"/>
    <path id="패스_173" data-name="패스 173" class="cls-1" d="M443.227,709.532c-2.089,4.7-1.905,6.955.717,8.979.046.028,4.266,3.073,5.881,4.307,1.172.894,2.812,1,3.152-.608,4.573-21.678,21.387-54.554,40.872-59.429.8-.2.752-1.221-.269-1.187-8.68.288-18.083,4.406-25.15,10.528-9.186,7.957-17.072,21.718-17.072,21.718a31.168,31.168,0,0,0-7.641-8.4s8.038-12.275,10.357-15.2c3.388-4.27,6.581-6.4,9.686-7.547.858-.318.559-1.2-.218-1.119a34.333,34.333,0,0,0-10.21,2.824c-3.407,1.7-8.971,4.13-17.493,16.52a36.259,36.259,0,0,0-10.259-2.677c-1.087-4.092-5.308-5.848-12.264-5.848a41.734,41.734,0,0,0-18.15,4.212c-.812-3.206.835-8.588,10.55-13.178,4.467-2.109,18.105-9.117,45.707-9.117a144.969,144.969,0,0,1,25.156,2.514c.978.2,1.149-.872.41-1.117a134.986,134.986,0,0,0-35.812-5.069c-19.041,0-37.9,5.3-45.234,15.748-1.718,2.448-3.976,6.916-2.577,11.159-15.661,8.8-24.023,26.078-17.71,36.7,2.981,5.013,8.327,7.495,15.693,7.495,24.211,0,38.518-15.64,49.628-32.186a41.92,41.92,0,0,1,6.5,11.228s-2.166,4.049-4.253,8.745M416.1,674.812c2.805,0,6.824.546,7.7,3.324a40.6,40.6,0,0,0-26.738,8.585c-6.207,5.076-9.348,10.281-10.193,14.428-.979,4.807,1.019,9,7.52,8.995,8.367-.008,20-8.024,27.162-18.582,2.682-3.952,4.046-7.457,4.266-11.519a19.323,19.323,0,0,1,8.318,3.2l-5.955,7.884c-12.454,16.384-22.17,26.072-39,27.453-14.053,1.153-16.636-13.523-4.555-27.393,8.758-10.055,21.718-16.376,31.48-16.376m-27.453,29.554c.873-5.406,10.921-14.212,14.68-16.832,5.783-4.03,13.756-7.558,20.632-7.669-.191,3.206-3.725,9.156-12.485,16.965-10.584,9.435-16.458,11.346-19.446,11.329-1.759-.011-3.82-1.076-3.381-3.793" transform="translate(3.752)"/>
  </g>
</svg>
