<svg id="gate_bt_logo1" xmlns="http://www.w3.org/2000/svg" width="90.96" height="18" viewBox="0 0 90.96 18">
  <defs>
    <style>
      .cls-1 {
        fill: #fff;
      }
    </style>
  </defs>
  <path id="패스_113" data-name="패스 113" class="cls-1" d="M381.243,253.434l-1.558,2.681-8.9,15.318h20.289Z" transform="translate(-367.76 -253.434)"/>
  <path id="패스_114" data-name="패스 114" class="cls-1" d="M377.548,253.434l-10.46,18h2.038l9.41-16.19Z" transform="translate(-367.088 -253.434)"/>
  <g id="그룹_90" data-name="그룹 90" transform="translate(28.262 0.784)">
    <g id="그룹_89" data-name="그룹 89">
      <path id="패스_115" data-name="패스 115" class="cls-1" d="M472.615,263.237h2.541V255h-2.541v2.538h-2.6V259.5h2.6Z" transform="translate(-412.553 -254.504)"/>
      <path id="패스_116" data-name="패스 116" class="cls-1" d="M411.178,258.374h-2.8a4.432,4.432,0,0,0-.582-.723h1.666v-1.959h-3.57v-1.3h-2.542v1.3h-3.569v1.959h1.64a4.5,4.5,0,1,0,6.8,5.847h2.955v3.762h2.541V254.892h-2.541Zm-6.565,4.763a2.337,2.337,0,1,1,2.335-2.339A2.34,2.34,0,0,1,404.613,263.137Zm4.436-1.6a4.37,4.37,0,0,0,.063-.716,3.926,3.926,0,0,0-.029-.493h2.1v1.208Z" transform="translate(-399.784 -254.392)"/>
      <path id="패스_117" data-name="패스 117" class="cls-1" d="M463.979,271.405v-.835H473.6v-4.75H461.437v1.961h9.619v.829h-9.619v4.753h12.256v-1.958Z" transform="translate(-410.994 -256.171)"/>
      <path id="패스_118" data-name="패스 118" class="cls-1" d="M404.383,268.893H401.84v5.053h12.253v-1.957h-9.71Z" transform="translate(-400.158 -256.73)"/>
      <path id="패스_119" data-name="패스 119" class="cls-1" d="M431.524,260.01h-1.413V255h-2.54v10.6h-5v-8.254h3.438v-2h-5.98V267.6h7.545v4.123h2.54v-9.714h1.413v9.714h2.545V255h-2.545Z" transform="translate(-403.465 -254.504)"/>
      <path id="패스_120" data-name="패스 120" class="cls-1" d="M444.085,268.893h-2.542v5.053h12.25v-1.957h-9.708Z" transform="translate(-407.377 -256.73)"/>
      <path id="패스_121" data-name="패스 121" class="cls-1" d="M447.085,260.959h3.845v6.412h2.54V255h-2.54v4h-2.939a9.269,9.269,0,0,0,.4-2.919v-.766h-8.183v1.958h5.625c0,2.515-1.986,4.856-6.044,5.842l.766,1.955h0A9.777,9.777,0,0,0,447.085,260.959Z" transform="translate(-407.057 -254.504)"/>
      <path id="패스_122" data-name="패스 122" class="cls-1" d="M463.818,259.732a9.229,9.229,0,0,0,4.223,3.313l1.184-1.822c-2.816-1.217-4.2-2.958-4.2-5.631v-.433h-2.414v.433c0,2.673-1.381,4.414-4.2,5.631l1.185,1.822A9.219,9.219,0,0,0,463.818,259.732Z" transform="translate(-410.444 -254.532)"/>
    </g>
  </g>
</svg>
