<svg id="gate_bt_logo2" xmlns="http://www.w3.org/2000/svg" width="138.298" height="18" viewBox="0 0 138.298 18">
  <defs>
    <style>
      .cls-1 {
        fill: #fff;
      }
    </style>
  </defs>
  <g id="그룹_94" data-name="그룹 94" transform="translate(25.742 0.541)">
    <path id="패스_123" data-name="패스 123" class="cls-1" d="M363.853,182.067c.042.042.049.047,0,0" transform="translate(-361.734 -174.157)"/>
    <path id="패스_124" data-name="패스 124" class="cls-1" d="M372.119,173.787H369.28a4.739,4.739,0,0,0-.591-.735h1.691v-1.987h-3.624v-1.321h-2.58v1.321h-3.625v1.987h1.668a4.565,4.565,0,1,0,6.9,5.939h3v3.817h2.58V170.252h-2.58Zm-6.664,4.835a2.373,2.373,0,1,1,2.372-2.374A2.376,2.376,0,0,1,365.455,178.622Zm4.5-1.621a4.434,4.434,0,0,0,.065-.726c0-.169-.013-.336-.029-.5h2.125V177Z" transform="translate(-360.551 -169.744)"/>
    <path id="패스_125" data-name="패스 125" class="cls-1" d="M365.8,188.513h-2.583v5.128h12.439v-1.987H365.8Z" transform="translate(-361.505 -176.466)"/>
    <path id="패스_126" data-name="패스 126" class="cls-1" d="M398.422,175.527h-1.433v-4.992h-2.578v10.571h-5.08v-8.233h3.49v-1.987h-6.072v12.2h7.662V187.2h2.578v-9.686h1.433V187.2h2.586V170.535h-2.586Z" transform="translate(-369.933 -170.027)"/>
    <path id="패스_127" data-name="패스 127" class="cls-1" d="M516.88,189.058c0,2.028,2.74,3.679,6.107,3.679s6.106-1.651,6.106-3.679-2.739-3.684-6.106-3.684S516.88,187.024,516.88,189.058Zm2.717,0c0-.947,1.52-1.719,3.39-1.719s3.388.771,3.388,1.719-1.519,1.718-3.388,1.718S519.6,190,519.6,189.058Z" transform="translate(-416.538 -175.342)"/>
    <path id="패스_128" data-name="패스 128" class="cls-1" d="M443.889,173.021a10.027,10.027,0,0,0,4.02,8.469l-1.435,1.743a10.745,10.745,0,0,1-3.867-5.789s-.311,2.644-3.86,5.772l-1.424-1.68s3.994-2.466,3.988-8.514h-3.22v-2.036h8.858v2.036Z" transform="translate(-388.046 -170.188)"/>
    <rect id="사각형_63" data-name="사각형 63" class="cls-1" width="2.582" height="16.667" transform="translate(61.242 0.508)"/>
    <path id="패스_129" data-name="패스 129" class="cls-1" d="M475.236,170.535v10.55H466.76V170.824h-2.581v12.248h11.057v4.13h2.582V170.535Z" transform="translate(-397.664 -170.027)"/>
    <path id="패스_130" data-name="패스 130" class="cls-1" d="M525.367,176.973v-6.438h2.586v9.52h-2.586v-.93l-11.31,0V173.9h6.007v-.916h-6.007v-2.159h8.366v5.231h-6.255v.918Z" transform="translate(-415.527 -170.027)"/>
    <path id="패스_131" data-name="패스 131" class="cls-1" d="M499.415,170.535v4.943h-2.134a6.6,6.6,0,0,0-1.073-3.322,4.065,4.065,0,0,0-3.52-1.621,4.3,4.3,0,0,0-3.645,1.542,10.24,10.24,0,0,0,0,9.464,4.3,4.3,0,0,0,3.645,1.531,4.1,4.1,0,0,0,3.56-1.531,7.5,7.5,0,0,0,1.076-4.03l2.091,0V187.2h2.6V170.535Zm-4.858,9.087a1.816,1.816,0,0,1-1.895,1.111,1.977,1.977,0,0,1-2.006-1.1,8.6,8.6,0,0,1-.5-2.827,5.832,5.832,0,0,1,.5-2.844,2.007,2.007,0,0,1,2.019-1.083,1.874,1.874,0,0,1,1.879,1.09,5.733,5.733,0,0,1,.488,2.836A6.024,6.024,0,0,1,494.557,179.622Z" transform="translate(-406.153 -170.027)"/>
    <g id="그룹_93" data-name="그룹 93" transform="translate(32.65 0.508)">
      <rect id="사각형_64" data-name="사각형 64" class="cls-1" width="2.363" height="12.537" transform="translate(12.689 0)"/>
      <g id="그룹_92" data-name="그룹 92">
        <path id="패스_132" data-name="패스 132" class="cls-1" d="M418.069,188.513h-2.583v5.128h12.441v-1.987h-9.858Z" transform="translate(-412.875 -176.973)"/>
        <path id="패스_133" data-name="패스 133" class="cls-1" d="M421.115,170.535v3.49h-.761a4.521,4.521,0,1,0,.031,1.96h.73v7.087h2.361V170.535Zm-5.166,6.874a2.342,2.342,0,1,1,2.341-2.342A2.345,2.345,0,0,1,415.95,177.409Z" transform="translate(-411.418 -170.535)"/>
      </g>
    </g>
    <path id="패스_134" data-name="패스 134" class="cls-1" d="M386.423,190.067" transform="translate(-369.817 -177.022)"/>
  </g>
  <g id="그룹_95" data-name="그룹 95">
    <path id="패스_135" data-name="패스 135" class="cls-1" d="M331.666,165.143l-1.586,2.682-9.049,15.318h20.629Z" transform="translate(-317.959 -165.143)"/>
    <path id="패스_136" data-name="패스 136" class="cls-1" d="M326.307,165.143l-10.632,18h2.07l9.567-16.193Z" transform="translate(-315.676 -165.143)"/>
  </g>
</svg>
