<svg xmlns="http://www.w3.org/2000/svg" width="165" height="140" viewBox="0 0 165 140">
  <g id="완료_icon" transform="translate(-1799.247 -45.198)">
    <line id="선_39" data-name="선 39" x2="134.502" transform="translate(1810.114 184.198)" fill="none" stroke="#2d2d2d" stroke-linecap="round" stroke-linejoin="round" stroke-width="2"/>
    <path id="패스_5508" data-name="패스 5508" d="M1881.571,151.924h-77.865a3.471,3.471,0,0,1-3.459-3.478V49.676A3.468,3.468,0,0,1,1803.7,46.2h147.32a3.468,3.468,0,0,1,3.459,3.477h0v98.77a3.471,3.471,0,0,1-3.459,3.478h-13.366" fill="#fff" stroke="#2d2d2d" stroke-linecap="round" stroke-linejoin="round" stroke-width="2"/>
    <rect id="사각형_782" data-name="사각형 782" width="154.133" height="106.844" transform="translate(1810.114 56.358)" fill="#d0ddec"/>
    <path id="패스_5508-2" data-name="패스 5508" d="M1881.571,151.924h-77.865a3.471,3.471,0,0,1-3.459-3.478V49.676A3.468,3.468,0,0,1,1803.7,46.2h147.32a3.468,3.468,0,0,1,3.459,3.477h0v98.77a3.471,3.471,0,0,1-3.459,3.478h-13.366" fill="none" stroke="#2d2d2d" stroke-linecap="round" stroke-linejoin="round" stroke-width="2"/>
    <rect id="사각형_783" data-name="사각형 783" width="52.159" height="67.665" transform="translate(1883.505 105.96)" fill="#fff"/>
    <path id="패스_5509" data-name="패스 5509" d="M1857.94,183.231c11.341-8.337,9-31.307,9-31.307H1882.8V184.2H1857Z" fill="#fff" stroke="#2d2d2d" stroke-linecap="round" stroke-linejoin="round" stroke-width="2"/>
    <line id="선_40" data-name="선 40" x2="15.507" transform="translate(1937.568 137.728)" fill="none" stroke="#2d2d2d" stroke-linecap="round" stroke-linejoin="round" stroke-width="2"/>
    <line id="선_41" data-name="선 41" x2="12.278" transform="translate(1937.568 151.924)" fill="none" stroke="#2d2d2d" stroke-linecap="round" stroke-linejoin="round" stroke-width="2"/>
    <line id="선_42" data-name="선 42" x2="80.352" transform="translate(1801.656 137.728)" fill="none" stroke="#2d2d2d" stroke-linecap="round" stroke-linejoin="round" stroke-width="2"/>
    <rect id="사각형_784" data-name="사각형 784" width="52.401" height="10.11" transform="translate(1883.264 173.625)" fill="#fff"/>
    <rect id="사각형_785" data-name="사각형 785" width="52.401" height="10.11" transform="translate(1883.264 95.479)" fill="#fff"/>
    <rect id="사각형_786" data-name="사각형 786" width="53.568" height="88.811" rx="3.547" transform="translate(1882.798 95.387)" fill="none" stroke="#2d2d2d" stroke-linecap="round" stroke-linejoin="round" stroke-width="2"/>
    <path id="선_44" data-name="선 44" d="M0,0H52.863" transform="translate(1882.802 106.045)" fill="none" stroke="#2d2d2d" stroke-linecap="round" stroke-width="2"/>
    <line id="선_45" data-name="선 45" x2="52.863" transform="translate(1882.802 173.625)" fill="none" stroke="#2d2d2d" stroke-linecap="round" stroke-linejoin="round" stroke-width="2"/>
    <line id="선_46" data-name="선 46" y2="95.905" transform="translate(1954.484 49.676)" fill="none" stroke="#2d2d2d" stroke-linecap="round" stroke-linejoin="round" stroke-width="2"/>
  </g>
</svg>
