<svg id="ico-customer-as-process" xmlns="http://www.w3.org/2000/svg" width="29.507" height="29.428" viewBox="0 0 29.507 29.428">
  <g id="그룹_1445" data-name="그룹 1445" transform="translate(0 27.118)">
    <path id="패스_5535" data-name="패스 5535" d="M803.027,570.646H777.816a1.155,1.155,0,0,1,0-2.31h25.211a1.155,1.155,0,0,1,0,2.31Z" transform="translate(-776.661 -568.336)" fill="#a38862"/>
  </g>
  <g id="그룹_1446" data-name="그룹 1446" transform="translate(18.805 5.207)">
    <path id="패스_5536" data-name="패스 5536" d="M805.839,545.793a1.152,1.152,0,0,1-.817-.339l-3.6-3.6a1.155,1.155,0,0,1,1.633-1.633l3.6,3.6a1.155,1.155,0,0,1-.816,1.972Z" transform="translate(-801.082 -539.881)" fill="#a38862"/>
  </g>
  <g id="그룹_1444" data-name="그룹 1444" transform="translate(7.928 0)">
    <g id="그룹_1441" data-name="그룹 1441" transform="translate(0 13.216)">
      <path id="패스_5532" data-name="패스 5532" d="M788.112,559.209a1.155,1.155,0,0,1-1.118-1.446l1.719-6.616a1.155,1.155,0,0,1,2.235.582l-1.23,4.732,4.78-1.194a1.155,1.155,0,1,1,.561,2.24l-6.668,1.667A1.123,1.123,0,0,1,788.112,559.209Z" transform="translate(-786.957 -550.282)" fill="#a38862"/>
    </g>
    <g id="그룹_1442" data-name="그룹 1442" transform="translate(20.424 6.883)">
      <path id="패스_5533" data-name="패스 5533" d="M813.48,542.058" transform="translate(-813.48 -542.058)" fill="#a38862" stroke="#000" stroke-linecap="round" stroke-linejoin="round" stroke-width="2"/>
    </g>
    <g id="그룹_1443" data-name="그룹 1443" transform="translate(1.745)">
      <path id="패스_5534" data-name="패스 5534" d="M795.32,553.564a1.155,1.155,0,0,1-.811-1.977L806.663,539.6l-.158-.943-2.757-2.757-12.56,12.385a1.155,1.155,0,1,1-1.622-1.645l13.377-13.191a1.153,1.153,0,0,1,1.627.005l3.829,3.829a1.163,1.163,0,0,1,.323.625l.319,1.9a1.157,1.157,0,0,1-.329,1.014l-12.581,12.407A1.155,1.155,0,0,1,795.32,553.564Z" transform="translate(-789.223 -533.119)" fill="#a38862"/>
    </g>
  </g>
</svg>
