<svg id="brand_logo" xmlns="http://www.w3.org/2000/svg" width="223.6" height="52" viewBox="0 0 223.6 52">
  <defs>
    <style>
      .cls-1 {
        fill: #fff;
      }
    </style>
  </defs>
  <g id="그룹_1195" data-name="그룹 1195" transform="translate(0 0)">
    <path id="패스_42" data-name="패스 42" class="cls-1" d="M80.333,65.853c-1.49,3.354-1.36,4.966.512,6.414.038.021,3.051,2.193,4.207,3.074.838.639,2.012.718,2.256-.433C90.577,59.428,102.6,35.95,116.53,32.469c.57-.143.538-.872-.191-.848-6.207.207-12.93,3.148-17.983,7.519C91.792,44.822,86.15,54.648,86.15,54.648a22.287,22.287,0,0,0-5.463-5.994s5.747-8.767,7.4-10.856a15.754,15.754,0,0,1,6.927-5.388c.613-.227.4-.856-.158-.8a24.573,24.573,0,0,0-7.3,2.016c-2.436,1.213-6.412,2.949-12.505,11.8a26,26,0,0,0-7.337-1.913c-.78-2.92-3.8-4.175-8.768-4.175a29.86,29.86,0,0,0-12.978,3.009c-.579-2.291.6-6.133,7.545-9.412,3.195-1.508,12.946-6.512,32.679-6.512a103.652,103.652,0,0,1,17.985,1.8c.7.142.822-.622.3-.8A96.683,96.683,0,0,0,78.87,23.8c-13.612,0-27.1,3.784-32.339,11.245-1.229,1.747-2.848,4.937-1.844,7.969C33.492,49.3,27.511,61.639,32.024,69.222c2.128,3.581,5.951,5.351,11.217,5.351,17.314,0,27.546-11.168,35.485-22.983a29.9,29.9,0,0,1,4.649,8.018S81.829,62.5,80.333,65.853ZM60.942,41.058c2.007,0,4.879.391,5.5,2.376a29.035,29.035,0,0,0-19.118,6.131c-4.438,3.624-6.68,7.342-7.286,10.3-.706,3.433.728,6.428,5.381,6.423,5.978,0,14.29-5.728,19.414-13.27A15.512,15.512,0,0,0,67.883,44.8a13.8,13.8,0,0,1,5.949,2.283l-4.255,5.63c-8.907,11.7-15.853,18.618-27.883,19.605-10.052.823-11.9-9.657-3.261-19.56C44.7,45.573,53.959,41.058,60.942,41.058ZM41.312,62.164c.622-3.861,7.811-10.149,10.5-12.02,4.137-2.878,9.837-5.4,14.754-5.475-.141,2.288-2.666,6.538-8.929,12.114-7.567,6.738-11.768,8.1-13.9,8.088A2.241,2.241,0,0,1,41.312,62.164Z" transform="translate(-30.512 -23.802)"/>
    <g id="그룹_37" data-name="그룹 37" transform="translate(86.411 17.16)">
      <rect id="사각형_19" data-name="사각형 19" class="cls-1" width="3.574" height="15.099" transform="translate(19.341 0.629)"/>
      <path id="패스_43" data-name="패스 43" class="cls-1" d="M167.116,56.908a4.915,4.915,0,0,0-1.76-3.983l-.186-.144h2.882V50.456h-6.146v-2.5H158.13v2.5h-6.146v2.326h2.865l-.166.144a4.889,4.889,0,0,0-1.764,3.983c0,3.688,2.842,6.156,7.085,6.156S167.116,60.6,167.116,56.908Zm-10.556,0c0-2.277,1.388-3.825,3.445-3.825,2.079,0,3.46,1.547,3.46,3.825,0,2.3-1.381,3.825-3.46,3.825C157.948,60.733,156.56,59.209,156.56,56.908Z" transform="translate(-151.985 -47.955)"/>
      <path id="패스_44" data-name="패스 44" class="cls-1" d="M161.7,78.964h14.9V72.078H157.9v2.335h15.071v2.281H158.061v7.38h18.862V81.736H161.7Z" transform="translate(-153.691 -54.939)"/>
      <path id="패스_45" data-name="패스 45" class="cls-1" d="M203.447,59.814l.061.134c2.222,3.923,7.672,6.115,11.722,6.794V64.286c-4.809-1.128-9.9-5.076-9.9-10.223V51.025h-3.757v3.038c0,5.147-5.1,9.1-9.891,10.223v2.456c4.132-.706,9.63-2.892,11.7-6.794Z" transform="translate(-163.443 -48.843)"/>
      <rect id="사각형_20" data-name="사각형 20" class="cls-1" width="25.425" height="2.481" transform="translate(27.3 23.529)"/>
      <rect id="사각형_21" data-name="사각형 21" class="cls-1" width="3.43" height="28.507" transform="translate(76.838 0.629)"/>
      <path id="패스_46" data-name="패스 46" class="cls-1" d="M250.485,77.347h3.425V48.84h-3.425v8.939h-3.433V60.1h3.433Z" transform="translate(-179.424 -48.211)"/>
      <path id="패스_47" data-name="패스 47" class="cls-1" d="M234.857,60.735h5.876v-2.26h-5.876V53.364h6.854V51.025H231.266V69.369h11.69V67.018h-8.1Z" transform="translate(-174.868 -48.844)"/>
      <rect id="사각형_22" data-name="사각형 22" class="cls-1" width="3.588" height="28.507" transform="translate(104.409 0.629)"/>
      <path id="패스_48" data-name="패스 48" class="cls-1" d="M279.236,51.025c-4.926,0-8.354,3.814-8.354,8.905s3.428,8.9,8.354,8.9c4.9,0,8.339-3.81,8.339-8.9S284.138,51.025,279.236,51.025Zm0,15.355c-2.811,0-4.606-2.692-4.606-6.45s1.8-6.447,4.606-6.447c2.794,0,4.6,2.686,4.6,6.447S282.031,66.38,279.236,66.38Z" transform="translate(-186.302 -48.843)"/>
      <rect id="사각형_23" data-name="사각형 23" class="cls-1" width="25.423" height="2.481" transform="translate(111.765 23.529)"/>
      <path id="패스_49" data-name="패스 49" class="cls-1" d="M317.511,60.073h14.972V57.8H317.511V53.35H332.8V51.025H313.921V67.418h19.186V65.085h-15.6Z" transform="translate(-198.725 -48.844)"/>
    </g>
  </g>
</svg>
