<svg id="BI" xmlns="http://www.w3.org/2000/svg" width="171.787" height="40" viewBox="0 0 171.787 40">
  <g id="그룹_33" data-name="그룹 33">
    <g id="그룹_32" data-name="그룹 32">
      <g id="그룹_31" data-name="그룹 31">
        <path id="패스_42" data-name="패스 42" d="M68.788,56.149c-1.144,2.58-1.045,3.82.393,4.934.03.016,2.344,1.687,3.232,2.364.644.492,1.546.553,1.733-.333C76.658,51.206,85.9,33.146,96.6,30.469c.438-.11.413-.671-.147-.653A23.287,23.287,0,0,0,82.635,35.6c-5.043,4.371-9.377,11.929-9.377,11.929a17.135,17.135,0,0,0-4.2-4.61s4.415-6.744,5.688-8.351a12.105,12.105,0,0,1,5.322-4.144c.471-.175.307-.659-.121-.615a18.86,18.86,0,0,0-5.607,1.551c-1.871.933-4.926,2.269-9.607,9.076A19.957,19.957,0,0,0,59.1,38.963c-.6-2.246-2.917-3.211-6.736-3.211a22.917,22.917,0,0,0-9.971,2.315c-.445-1.762.462-4.718,5.8-7.24,2.454-1.16,9.946-5.009,25.107-5.009A79.539,79.539,0,0,1,87.111,27.2c.538.109.631-.479.227-.613A74.194,74.194,0,0,0,67.664,23.8c-10.458,0-20.817,2.911-24.845,8.65-.944,1.344-2.188,3.8-1.417,6.13-8.6,4.834-13.2,14.326-9.729,20.159,1.635,2.754,4.572,4.116,8.618,4.116,13.3,0,21.163-8.591,27.262-17.679a23.007,23.007,0,0,1,3.572,6.168S69.937,53.569,68.788,56.149ZM53.89,37.076c1.542,0,3.748.3,4.227,1.828A22.289,22.289,0,0,0,43.43,43.62c-3.41,2.788-5.132,5.648-5.6,7.925-.542,2.641.559,4.945,4.134,4.941,4.593,0,10.979-4.406,14.915-10.207a11.942,11.942,0,0,0,2.342-6.325,10.6,10.6,0,0,1,4.571,1.757l-3.269,4.331c-6.843,9-12.179,14.322-21.422,15.081-7.722.633-9.139-7.428-2.505-15.046C41.409,40.549,48.526,37.076,53.89,37.076ZM38.809,53.312c.478-2.97,6-7.807,8.064-9.246,3.179-2.214,7.558-4.151,11.335-4.212-.108,1.76-2.048,5.029-6.86,9.318-5.814,5.183-9.041,6.231-10.681,6.222A1.723,1.723,0,0,1,38.809,53.312Z" transform="translate(-30.511 -23.802)" fill="#961e1e"/>
      </g>
    </g>
  </g>
  <g id="그룹_37" data-name="그룹 37" transform="translate(66.388 13.2)">
    <g id="그룹_36" data-name="그룹 36" transform="translate(0 0)">
      <g id="그룹_35" data-name="그룹 35">
        <g id="그룹_34" data-name="그룹 34">
          <rect id="사각형_19" data-name="사각형 19" width="2.746" height="11.615" transform="translate(14.859 0.484)" fill="#961e1e"/>
          <path id="패스_43" data-name="패스 43" d="M163.61,54.842a3.783,3.783,0,0,0-1.352-3.064l-.143-.11h2.215V49.879h-4.722V47.955h-2.9v1.924h-4.721v1.789h2.2l-.127.11a3.763,3.763,0,0,0-1.355,3.064c0,2.837,2.183,4.735,5.443,4.735S163.61,57.679,163.61,54.842Zm-8.11,0a2.667,2.667,0,1,1,5.305,0,2.667,2.667,0,1,1-5.305,0Z" transform="translate(-151.985 -47.955)" fill="#961e1e"/>
          <path id="패스_44" data-name="패스 44" d="M160.822,77.375h11.449v-5.3H157.9v1.8h11.579v1.755H158.023v5.677h14.491v-1.8H160.822Z" transform="translate(-154.666 -58.894)" fill="#961e1e"/>
          <path id="패스_45" data-name="패스 45" d="M200.721,57.786l.047.1c1.707,3.017,5.894,4.7,9.006,5.226V61.226c-3.695-.867-7.6-3.9-7.6-7.864V51.025h-2.887v2.337c0,3.959-3.92,7-7.6,7.864v1.889c3.175-.543,7.4-2.225,8.987-5.226Z" transform="translate(-169.988 -49.347)" fill="#961e1e"/>
          <rect id="사각형_20" data-name="사각형 20" width="19.533" height="1.909" transform="translate(20.974 18.099)" fill="#961e1e"/>
          <rect id="사각형_21" data-name="사각형 21" width="2.635" height="21.928" transform="translate(59.032 0.484)" fill="#961e1e"/>
          <path id="패스_46" data-name="패스 46" d="M249.689,70.768h2.631V48.84h-2.631v6.876h-2.638V57.5h2.638Z" transform="translate(-195.095 -48.356)" fill="#961e1e"/>
          <path id="패스_47" data-name="패스 47" d="M234.024,58.494h4.514V56.755h-4.514V52.824h5.266v-1.8h-8.024v14.11h8.981V63.328h-6.223Z" transform="translate(-187.937 -49.347)" fill="#961e1e"/>
          <rect id="사각형_22" data-name="사각형 22" width="2.757" height="21.928" transform="translate(80.215 0.484)" fill="#961e1e"/>
          <path id="패스_48" data-name="패스 48" d="M277.3,51.025c-3.785,0-6.418,2.934-6.418,6.85s2.634,6.85,6.418,6.85c3.766,0,6.406-2.93,6.406-6.85S281.066,51.025,277.3,51.025Zm0,11.811c-2.159,0-3.539-2.071-3.539-4.961s1.379-4.959,3.539-4.959,3.534,2.066,3.534,4.959S279.447,62.836,277.3,62.836Z" transform="translate(-205.902 -49.347)" fill="#961e1e"/>
          <rect id="사각형_23" data-name="사각형 23" width="19.532" height="1.909" transform="translate(85.866 18.099)" fill="#961e1e"/>
          <path id="패스_49" data-name="패스 49" d="M316.679,57.985h11.5V56.24h-11.5V52.814h11.744V51.025h-14.5v12.61h14.74V61.841H316.679Z" transform="translate(-225.419 -49.347)" fill="#961e1e"/>
        </g>
      </g>
    </g>
  </g>
</svg>
